<?xml version="1.0" standalone="no"?>
<!DOCTYPE svg PUBLIC "-//W3C//DTD SVG 20010904//EN"
 "http://www.w3.org/TR/2001/REC-SVG-20010904/DTD/svg10.dtd">
<svg version="1.0" xmlns="http://www.w3.org/2000/svg"
 width="256.000000pt" height="256.000000pt" viewBox="0 0 256.000000 256.000000"
 preserveAspectRatio="xMidYMid meet">
<metadata>
Created by potrace 1.14, written by Peter Selinger 2001-2017
</metadata>
<g transform="translate(0.000000,256.000000) scale(0.100000,-0.100000)"
fill="#000000" stroke="none">
<path d="M1275 2461 c-18 -5 -20 -15 -20 -83 0 -68 2 -78 17 -79 70 -4 73 -3
76 20 3 19 0 22 -16 17 -11 -4 -24 -1 -31 7 -9 12 -6 16 19 20 21 5 28 11 24
22 -3 8 -15 15 -25 15 -10 0 -19 5 -19 10 0 9 16 14 46 13 12 0 13 21 2 32 -9
10 -52 13 -73 6z"/>
<path d="M1141 2442 c-5 -9 -8 -41 -7 -70 2 -55 24 -84 60 -78 19 3 43 35 40
54 -1 6 -2 27 -3 46 0 19 -8 42 -17 50 -21 21 -61 20 -73 -2z m52 -65 c3 -20
0 -40 -6 -44 -6 -3 -7 -1 -3 5 4 7 3 12 -2 12 -7 0 -9 46 -3 69 3 11 9 -8 14
-42z"/>
<path d="M1402 2440 c-24 -23 -19 -64 11 -85 11 -8 18 -18 14 -22 -4 -3 -12
-2 -18 4 -17 17 -38 5 -32 -18 8 -29 35 -40 64 -26 32 17 36 53 8 83 -12 13
-19 27 -15 31 4 4 10 3 14 -2 11 -16 30 -16 35 -1 6 15 -16 39 -44 49 -9 3
-26 -3 -37 -13z"/>
<path d="M1040 2442 c-31 -5 -41 -20 -34 -52 3 -14 6 -37 7 -52 0 -16 4 -28 9
-28 4 0 8 -9 8 -20 0 -24 20 -26 59 -5 29 15 29 11 19 110 -3 22 -44 51 -68
47z m27 -48 c-3 -3 -1 -17 4 -31 11 -28 1 -53 -12 -32 -13 20 -11 69 3 69 6 0
9 -3 5 -6z"/>
<path d="M1510 2388 c-6 -24 -15 -56 -20 -72 -14 -41 -13 -43 13 -42 12 0 22
6 22 13 0 6 4 15 8 20 5 4 8 4 7 -2 -7 -31 1 -51 20 -51 20 0 22 6 46 91 13
47 13 63 -1 69 -10 4 -19 -2 -24 -16 -8 -21 -8 -21 -15 5 -11 44 -43 36 -56
-15z"/>
<path d="M840 2377 c-50 -23 -50 -23 -18 -99 17 -40 31 -74 32 -75 1 -1 14 4
29 12 15 8 27 12 27 10 0 -3 9 3 20 12 16 14 17 19 6 25 -8 5 -23 7 -33 6 -10
-2 -18 2 -18 7 0 6 4 9 8 7 5 -1 7 8 5 20 -2 16 -10 23 -25 24 -38 2 -39 4
-13 17 25 13 34 38 15 43 -5 1 -21 -3 -35 -9z"/>
<path d="M1641 2371 c-8 -14 -7 -22 5 -32 14 -11 18 -10 29 5 16 21 9 46 -11
46 -7 0 -18 -9 -23 -19z"/>
<path d="M1713 2336 c3 -21 0 -41 -8 -54 -8 -10 -11 -22 -8 -26 3 -3 1 -6 -5
-6 -15 0 -16 -36 -2 -45 11 -7 40 11 39 23 -2 16 14 52 23 52 5 0 6 5 3 10 -5
9 15 15 38 11 22 -3 2 30 -29 48 -49 29 -58 27 -51 -13z"/>
<path d="M722 2317 c-41 -18 -38 -60 8 -123 8 -11 21 -24 27 -28 13 -7 53 9
64 27 9 12 -1 48 -11 42 -5 -3 -10 1 -12 7 -3 8 -11 1 -20 -16 l-15 -29 -7 27
c-3 14 -11 26 -16 26 -6 0 -10 7 -10 16 0 8 5 12 10 9 6 -3 19 -3 30 0 16 5
18 10 10 24 -13 25 -30 30 -58 18z"/>
<path d="M631 2261 c-8 -5 -11 -17 -6 -30 4 -12 2 -21 -4 -21 -6 0 -11 5 -11
10 0 14 -19 12 -35 -4 -12 -11 -9 -19 15 -47 16 -19 29 -38 30 -43 0 -10 40
-46 50 -46 13 0 20 29 10 35 -6 4 -10 11 -10 17 0 6 8 4 18 -5 15 -14 19 -14
37 -1 17 13 18 16 5 24 -8 5 -10 10 -5 10 6 0 2 5 -8 11 -9 6 -15 14 -12 20 4
5 2 9 -3 9 -5 0 -20 15 -33 34 -17 24 -29 32 -38 27z"/>
<path d="M1865 2204 c-43 -52 -46 -88 -7 -107 24 -13 29 -12 44 2 20 20 8 47
-16 38 -9 -4 -16 -3 -16 2 0 14 41 61 53 61 9 0 9 -2 1 -8 -8 -5 -7 -11 4 -22
21 -19 21 -19 36 9 12 21 11 26 -7 44 -32 32 -54 28 -92 -19z"/>
<path d="M505 2156 c-38 -39 -38 -44 7 -92 73 -77 56 -83 -27 -9 -36 32 -41
34 -52 19 -12 -17 -11 -18 76 -93 28 -24 56 -28 48 -7 -3 8 1 20 9 26 8 7 14
9 14 5 0 -4 16 9 35 29 34 36 44 53 26 42 -5 -4 -11 -1 -13 5 -2 6 -14 2 -30
-10 -26 -21 -29 -15 -13 22 9 21 -8 46 -19 28 -4 -6 -17 -11 -29 -11 l-22 1
21 17 c12 10 18 24 15 32 -9 22 -23 20 -46 -4z"/>
<path d="M1968 2113 c-40 -25 -58 -42 -58 -56 0 -11 3 -17 6 -14 4 3 15 2 26
-4 11 -6 17 -13 14 -16 -7 -7 12 -33 24 -33 4 0 15 16 26 35 10 19 22 35 27
35 4 0 6 4 2 9 -3 5 2 17 11 25 18 19 15 50 -6 52 -8 1 -41 -14 -72 -33z"/>
<path d="M823 2076 c-57 -20 -96 -81 -106 -167 -5 -42 -13 -59 -29 -59 -17 0
-49 -42 -44 -57 3 -7 2 -13 -3 -13 -4 0 -8 -7 -8 -15 0 -8 4 -15 9 -15 5 0 7
-4 3 -10 -7 -11 54 -72 66 -65 4 3 11 0 15 -6 4 -8 9 -7 15 2 6 10 9 11 9 2 0
-23 2 -28 10 -38 14 -17 -1 -30 -50 -44 -61 -17 -180 -72 -180 -82 0 -5 -3 -8
-7 -7 -13 4 -74 -55 -90 -87 -21 -40 -24 -104 -5 -140 35 -69 111 -122 255
-175 85 -32 88 -34 81 -59 -3 -14 -7 -32 -7 -38 0 -7 -5 -13 -10 -13 -6 0 -8
-2 -5 -5 3 -3 0 -29 -7 -58 -6 -29 -11 -69 -11 -89 1 -21 -2 -38 -7 -38 -4 0
-5 -5 -1 -12 4 -7 9 -26 11 -43 14 -133 132 -188 268 -125 28 13 53 24 57 24
3 1 10 4 13 8 4 4 16 3 27 -3 33 -18 58 -19 58 -3 0 8 -7 15 -15 15 -8 1 -21
2 -27 3 -19 2 -46 62 -41 89 5 26 34 47 73 53 63 10 98 -90 46 -131 -36 -29
-34 -49 3 -27 16 9 27 20 25 24 -2 4 2 10 9 15 8 5 13 26 13 57 -1 39 3 51 20
63 19 12 24 12 37 -2 9 -8 18 -15 20 -15 2 0 25 -19 50 -43 41 -38 176 -126
202 -132 5 -1 21 -5 35 -9 43 -12 100 -14 106 -5 3 5 9 7 13 4 14 -8 79 59 95
97 10 26 14 63 11 120 -3 87 -5 95 -26 168 -22 77 -21 90 7 90 13 0 24 5 24
10 0 6 9 10 19 10 11 0 32 5 48 12 15 6 30 12 33 12 3 1 35 18 70 39 62 36
120 98 127 134 8 42 4 82 -12 113 -19 36 -80 97 -107 106 -10 3 -18 10 -18 16
0 5 -7 8 -15 4 -8 -3 -15 -2 -15 3 0 5 -10 12 -22 16 -13 4 -25 8 -28 10 -53
23 -123 44 -131 39 -4 -2 -6 7 -3 21 8 47 24 77 44 82 11 3 20 10 20 15 0 5 4
7 10 3 11 -7 40 46 40 75 0 36 -36 90 -59 90 -6 0 -10 3 -9 8 6 23 -16 101
-38 129 -38 50 -72 64 -144 58 -34 -2 -68 -9 -76 -16 -8 -6 -14 -9 -14 -5 0 3
-18 -5 -40 -19 -22 -14 -42 -25 -45 -25 -6 0 -27 -17 -119 -95 -72 -62 -100
-70 -111 -34 -4 10 -12 19 -20 19 -7 0 -15 4 -17 9 -6 16 -133 106 -182 130
-77 36 -143 45 -193 27z m77 -40 c55 4 203 -82 297 -173 18 -17 33 -36 33 -42
0 -6 -15 -27 -32 -47 -110 -123 -101 -116 -159 -120 -61 -5 -91 -9 -169 -22
-30 -6 -55 -9 -55 -8 0 0 -5 15 -11 32 -9 26 -8 35 6 55 27 35 22 99 -9 126
-15 13 -28 23 -31 23 -5 0 -6 28 -2 87 3 39 89 120 100 94 1 -4 16 -6 32 -5z
m812 -4 c29 -12 59 -61 64 -104 2 -16 -1 -28 -7 -28 -12 0 -68 -57 -70 -71 -5
-43 4 -72 34 -102 14 -14 17 -26 12 -45 -4 -15 -8 -33 -8 -39 0 -13 -12 -17
-31 -14 -5 1 -28 4 -50 6 -23 2 -41 5 -41 6 0 1 -16 3 -35 5 -139 14 -133 12
-170 56 -19 23 -50 58 -67 77 -18 19 -33 40 -33 45 0 26 222 196 256 196 8 0
14 5 14 11 0 5 4 8 9 5 5 -4 19 -2 32 2 27 11 55 9 91 -6z m126 -173 c12 -9
19 -19 15 -22 -3 -4 -2 -7 4 -7 6 0 13 -9 16 -20 3 -11 1 -20 -4 -20 -5 0 -9
-8 -9 -18 0 -19 -30 -39 -65 -44 -29 -4 -60 22 -73 60 -10 29 -9 35 17 61 31
31 63 35 99 10z m-1078 -23 c0 -5 3 -6 6 -3 9 9 44 -37 44 -58 0 -24 -30 -76
-40 -70 -5 3 -11 1 -15 -4 -6 -11 -45 -10 -45 1 0 4 -5 7 -12 6 -18 -4 -39 44
-33 75 4 25 35 69 35 51 0 -5 4 -4 10 2 12 12 50 13 50 0z m558 -96 c13 -14
31 -36 41 -50 l19 -25 -101 1 c-67 0 -102 5 -105 12 -2 7 0 12 5 12 5 0 26 22
48 50 42 53 44 53 93 0z m-33 -122 c6 0 18 3 28 7 9 4 17 3 17 -3 0 -11 18
-11 37 1 6 4 14 3 18 -3 4 -6 11 -8 16 -5 9 6 69 -53 69 -68 0 -4 18 -32 40
-61 22 -29 40 -56 40 -60 0 -4 11 -23 24 -43 l25 -36 -21 -41 c-24 -48 -130
-206 -152 -229 -10 -9 -34 -15 -68 -15 -29 0 -57 -1 -63 -2 -5 -2 -13 -2 -17
-1 -4 0 -37 1 -74 2 -63 2 -69 4 -100 37 -19 20 -37 44 -40 54 -3 10 -10 18
-15 18 -5 0 -9 6 -9 13 0 7 -9 23 -20 35 -11 12 -20 24 -20 27 0 3 -11 24 -25
46 -32 49 -30 55 49 178 91 143 99 151 157 148 27 -1 49 1 49 5 0 4 10 4 23 2
12 -3 27 -6 32 -6z m-232 -15 c-8 -23 -34 -64 -50 -81 -7 -7 -13 -17 -13 -22
0 -5 -6 -15 -12 -22 -7 -8 -21 -27 -30 -43 -19 -34 -38 -44 -38 -21 0 9 -3 16
-8 16 -4 0 -12 12 -19 28 -26 58 -36 87 -35 95 1 4 -3 7 -10 7 -20 0 6 20 33
26 34 7 77 14 129 20 25 3 47 8 49 10 9 8 10 3 4 -13z m477 9 c0 -5 10 -8 22
-7 12 1 45 -4 74 -11 29 -6 55 -10 57 -8 2 3 10 -2 17 -11 9 -11 9 -15 1 -15
-7 0 -9 -5 -6 -11 4 -5 0 -18 -8 -27 -9 -9 -15 -21 -15 -25 0 -16 -25 -67 -33
-67 -5 0 -8 -5 -6 -11 5 -26 -21 -17 -33 11 -7 16 -16 30 -21 30 -5 0 -9 5 -9
11 0 5 -18 37 -40 69 -40 60 -48 76 -30 65 6 -3 10 -1 10 4 0 6 5 11 10 11 6
0 10 -4 10 -8z m-730 -74 c0 -5 21 -52 46 -104 l46 -95 -53 -114 c-47 -102
-55 -113 -72 -104 -10 6 -21 8 -24 5 -3 -3 -22 3 -42 13 -20 11 -40 19 -46 20
-22 1 -118 58 -147 87 -91 89 -52 180 110 262 36 18 67 30 70 27 3 -3 10 0 17
5 6 5 21 11 33 13 12 2 25 6 28 10 8 8 34 -11 34 -25z m1030 7 c0 2 25 -6 55
-20 30 -13 55 -22 55 -19 0 3 6 0 13 -6 6 -6 31 -24 54 -40 111 -78 104 -172
-18 -252 -28 -18 -54 -33 -58 -34 -3 0 -19 -6 -36 -13 -16 -7 -34 -14 -40 -15
-11 -3 -39 -13 -72 -26 -23 -10 -31 3 -96 155 -11 28 -26 53 -31 57 -8 5 -7
11 1 19 6 6 9 19 6 28 -4 9 -2 13 2 8 5 -4 25 32 45 79 21 47 43 90 50 94 8 5
25 3 42 -6 15 -8 28 -12 28 -9z m-169 -320 c-1 -3 10 -28 24 -55 21 -42 23
-53 13 -64 -7 -7 -20 -13 -28 -13 -15 -1 -75 -8 -142 -18 -21 -3 -38 -1 -38 3
0 10 51 85 64 94 7 5 7 8 1 8 -6 0 -6 3 1 8 6 4 23 29 39 55 l28 49 19 -31
c11 -16 19 -33 19 -36z m-670 -42 c35 -54 65 -101 67 -106 4 -7 -18 -5 -123 9
-71 9 -75 10 -85 20 -10 10 27 115 49 137 6 6 11 17 11 24 0 29 20 8 81 -84z
m-96 -137 c11 -2 47 -7 80 -10 85 -10 94 -11 101 -18 3 -4 12 -4 18 -2 7 3 26
-12 41 -33 16 -21 39 -48 52 -60 13 -13 21 -23 17 -23 -3 0 4 -8 16 -18 l21
-17 -21 -28 c-17 -21 -25 -25 -35 -17 -17 14 -86 9 -92 -7 -3 -7 -11 -13 -18
-13 -16 0 -33 -47 -29 -77 3 -15 -5 -28 -25 -42 -15 -11 -31 -18 -35 -14 -3 3
-6 0 -6 -7 0 -7 -3 -11 -6 -8 -3 4 -20 1 -37 -6 -28 -10 -51 -13 -67 -6 -3 1
-13 3 -23 5 -81 15 -103 161 -52 333 8 25 12 49 9 54 -3 4 0 8 6 8 6 0 9 4 5
10 -5 8 27 7 80 -4z m843 -14 c6 -15 14 -40 18 -57 4 -16 8 -34 10 -40 21 -73
21 -179 1 -227 -24 -56 -84 -77 -167 -56 -54 14 -235 138 -277 190 -13 15 -4
31 52 97 11 12 32 37 46 54 17 19 37 31 55 32 16 1 56 5 89 10 33 4 70 8 83 8
12 1 22 3 22 7 0 3 13 6 29 7 23 2 31 -3 39 -25z m-368 -23 c0 -11 -83 -109
-93 -109 -11 0 -107 103 -102 110 5 8 195 7 195 -1z"/>
<path d="M1198 1546 c-21 -5 -38 -13 -38 -18 0 -4 -5 -8 -10 -8 -6 0 -21 -11
-34 -24 -77 -76 -82 -205 -12 -291 15 -19 16 -18 4 10 -7 17 -15 32 -18 35
-10 9 -20 110 -11 110 4 0 8 9 9 20 1 11 2 27 3 35 4 30 96 113 113 102 1 -1
10 4 19 11 9 8 21 11 27 7 5 -3 10 0 10 7 0 8 3 9 8 3 4 -6 18 -10 32 -9 14 1
37 -5 53 -12 16 -9 27 -10 27 -4 0 5 -7 10 -15 10 -8 0 -15 4 -15 8 0 10 -5
11 -70 15 -25 2 -62 -1 -82 -7z"/>
<path d="M1256 1499 c-8 -12 -13 -26 -11 -30 3 -4 -2 -24 -11 -45 -9 -21 -18
-50 -21 -63 -2 -14 -9 -31 -15 -38 -6 -7 -8 -13 -5 -13 3 0 -1 -19 -8 -42 -18
-61 -4 -93 55 -127 25 -14 86 -17 123 -5 63 20 124 102 128 174 3 48 -11 120
-22 120 -6 0 -8 4 -5 8 3 5 -6 16 -19 26 -14 10 -23 22 -20 25 2 4 -4 12 -14
18 -14 9 -18 8 -18 -3 0 -8 2 -12 5 -10 6 7 52 -49 52 -63 0 -6 5 -11 11 -11
7 0 9 -10 5 -24 -3 -14 -2 -27 3 -30 9 -6 0 -62 -19 -111 -10 -25 -80 -102
-80 -88 0 3 -7 0 -15 -7 -8 -6 -19 -9 -24 -6 -5 4 -12 2 -16 -4 -8 -13 -63 -4
-92 15 -18 12 -21 22 -18 64 2 28 9 60 16 73 7 13 14 28 15 33 0 6 2 12 3 15
1 3 4 14 7 25 2 11 10 38 18 59 13 38 14 38 22 15 4 -13 9 -26 9 -29 1 -3 5
-18 9 -35 4 -16 10 -37 13 -45 3 -8 7 -19 9 -25 1 -5 5 -18 9 -27 9 -24 2 -23
-45 7 -27 17 -41 21 -46 13 -4 -7 -3 -8 4 -4 7 4 12 3 12 -2 0 -6 11 -13 25
-16 14 -4 25 -11 25 -16 0 -6 6 -10 14 -10 8 0 18 -5 22 -12 4 -7 3 -8 -4 -4
-7 4 -12 2 -12 -3 0 -6 7 -11 15 -11 8 0 14 -3 14 -7 -3 -19 2 -33 11 -33 10
0 7 41 -5 60 -7 12 -17 49 -18 73 -1 9 -4 17 -8 17 -4 0 -10 15 -13 34 -4 19
-12 37 -19 39 -9 4 -9 6 0 6 9 1 8 8 -3 29 -7 15 -14 35 -14 44 0 27 -17 30
-34 7z"/>
<path d="M2104 2055 c-4 -8 -12 -15 -19 -15 -7 0 -15 -4 -17 -9 -1 -5 -20 -20
-41 -34 -34 -23 -36 -27 -21 -42 15 -15 18 -15 35 1 23 20 25 12 5 -19 -12
-19 -12 -24 -1 -34 11 -10 18 -7 35 17 12 17 25 28 29 25 11 -6 48 27 52 45 5
24 -9 54 -31 68 -17 10 -21 10 -26 -3z m16 -55 c0 -5 -2 -10 -4 -10 -3 0 -8 5
-11 10 -3 6 -1 10 4 10 6 0 11 -4 11 -10z"/>
<path d="M382 2010 c-39 -32 -29 -62 32 -104 50 -34 72 -33 91 3 13 26 13 32
0 44 -8 8 -11 18 -7 21 3 4 -1 4 -11 0 -16 -6 -21 -17 -18 -36 2 -14 -24 -8
-49 12 -24 19 -24 21 2 24 20 2 21 34 1 44 -13 8 -24 5 -41 -8z"/>
<path d="M2163 1936 c-6 -6 -30 -22 -52 -36 -23 -13 -41 -29 -41 -35 0 -6 11
-26 24 -43 20 -28 25 -30 36 -18 6 9 8 21 4 28 -12 18 -14 38 -4 38 4 0 10 -7
14 -15 6 -17 32 -20 41 -5 3 5 1 19 -6 31 -10 19 -9 21 6 16 9 -4 19 -7 21 -7
2 0 4 -7 4 -15 0 -17 25 -20 35 -5 4 6 -2 25 -12 43 -20 33 -49 43 -70 23z"/>
<path d="M328 1912 c-9 -2 -20 -12 -23 -23 -4 -11 -10 -17 -15 -14 -4 3 -6 -4
-3 -16 8 -29 49 -55 66 -40 17 13 38 -5 30 -25 -8 -21 43 -18 52 4 17 41 14
63 -12 75 -20 9 -31 8 -53 -5 -25 -14 -29 -14 -34 -2 -3 8 -2 13 3 10 5 -3 13
0 19 7 13 15 -6 34 -30 29z m77 -82 c3 -5 -1 -10 -10 -10 -9 0 -13 5 -10 10 3
6 8 10 10 10 2 0 7 -4 10 -10z"/>
<path d="M479 738 c-13 -18 -27 -35 -31 -36 -5 -2 -6 -8 -2 -13 3 -5 1 -9 -4
-9 -5 0 -14 -11 -20 -24 -9 -21 -8 -26 8 -31 11 -3 28 -1 39 5 17 9 20 8 15
-5 -4 -8 -9 -15 -13 -15 -11 0 -9 -34 2 -41 5 -4 37 9 71 28 75 42 83 50 69
64 -8 8 -20 6 -43 -6 l-33 -17 22 28 c19 24 20 30 8 42 -12 11 -19 12 -37 2
-28 -15 -36 -7 -15 14 17 17 14 46 -4 46 -5 0 -20 -15 -32 -32z"/>
<path d="M2000 738 l-23 -31 54 -48 c30 -27 59 -49 65 -49 6 0 23 14 39 32 26
29 27 32 10 44 -16 12 -20 11 -32 -6 -8 -11 -19 -18 -24 -14 -6 4 -6 10 1 19
11 14 4 45 -11 45 -5 0 -12 -6 -15 -14 -3 -8 -12 -12 -20 -9 -12 4 -11 8 1 26
20 28 19 37 -3 37 -10 0 -29 -14 -42 -32z"/>
<path d="M1950 680 c-8 -5 -10 -15 -6 -26 4 -11 7 -21 6 -23 -1 -2 4 -8 12
-12 10 -7 9 -9 -4 -9 -9 0 -20 5 -23 10 -11 17 -47 12 -43 -7 4 -20 118 -92
136 -85 16 6 16 37 -1 54 -7 7 -19 29 -27 48 -18 45 -33 60 -50 50z"/>
<path d="M620 612 c-51 -60 -77 -99 -73 -109 7 -19 27 -16 43 6 7 11 17 18 22
15 4 -3 1 -12 -7 -20 -19 -19 -19 -40 -1 -47 9 -4 32 17 61 55 43 54 46 61 32
75 -13 14 -16 13 -26 -6 -7 -11 -17 -21 -23 -21 -6 0 -4 10 5 24 12 17 13 26
4 35 -15 15 -20 14 -37 -7z"/>
<path d="M1836 581 c-26 -18 -66 -64 -49 -59 8 3 52 -37 54 -49 3 -17 38 -53
51 -53 7 0 26 12 41 26 21 19 26 29 18 37 -9 9 -17 8 -32 -1 -24 -15 -34 -10
-25 13 3 10 11 13 18 9 8 -5 8 -1 -2 12 -8 10 -15 20 -16 22 -1 2 -11 -1 -22
-7 -30 -16 -35 -1 -7 25 19 17 21 25 12 33 -9 7 -21 5 -41 -8z"/>
<path d="M719 505 c-22 -19 -38 -35 -33 -35 4 0 -3 -8 -14 -19 -30 -25 -27
-41 7 -41 20 0 30 -6 34 -20 9 -35 35 -23 48 23 7 23 14 47 16 52 23 76 3 90
-58 40z"/>
<path d="M1750 505 c0 -14 3 -25 8 -25 4 0 18 -23 31 -50 14 -28 31 -50 38
-50 21 0 27 29 11 48 -14 16 -31 53 -28 60 1 5 -47 42 -54 42 -3 0 -6 -11 -6
-25z"/>
<path d="M820 485 c-9 -10 -9 -15 -1 -15 15 0 14 -46 -2 -62 -8 -7 -12 -18
-10 -25 2 -6 -1 -14 -6 -18 -6 -3 -11 -12 -11 -20 0 -18 38 -15 46 5 4 8 8 17
9 20 2 3 6 15 10 28 4 13 18 28 31 33 26 9 33 39 9 39 -8 0 -15 5 -15 11 0 5
-4 8 -9 4 -5 -3 -12 -1 -16 5 -9 14 -20 12 -35 -5z"/>
<path d="M1647 467 c-7 -18 57 -142 74 -143 8 0 26 8 40 18 14 9 30 14 34 10
4 -4 2 3 -4 16 -13 25 -15 26 -42 12 -16 -9 -22 -5 -41 35 -12 25 -26 45 -31
45 -4 0 -5 5 -2 10 3 6 0 10 -8 10 -8 0 -17 -6 -20 -13z"/>
<path d="M1564 440 c-22 -9 -41 -40 -24 -40 6 0 9 -3 8 -7 -1 -5 6 -32 16 -60
17 -52 18 -53 54 -48 38 5 69 32 54 47 -5 5 -21 4 -35 -1 -21 -8 -27 -8 -27 3
0 8 7 16 15 20 25 9 18 36 -10 36 -32 0 -33 18 -2 25 33 9 31 35 -2 34 -14 0
-35 -4 -47 -9z"/>
<path d="M1007 424 c-3 -3 -2 -16 2 -28 5 -11 7 -48 5 -82 -3 -50 -1 -61 11
-61 10 0 20 16 26 44 6 24 16 43 22 43 6 0 7 3 4 7 -4 3 1 11 10 18 20 15 26
45 9 45 -7 0 -17 -5 -24 -12 -9 -9 -16 -6 -30 10 -21 23 -25 26 -35 16z"/>
<path d="M1460 411 c-20 -6 -25 -13 -24 -37 1 -27 10 -92 15 -104 1 -3 1 -8 0
-12 0 -5 2 -8 7 -9 4 0 15 -2 25 -4 9 -2 17 1 17 6 0 6 5 7 10 4 6 -3 10 -1
10 5 0 6 4 9 9 6 15 -10 18 15 8 68 -9 47 -31 87 -46 85 -3 -1 -17 -4 -31 -8z
m37 -113 c-3 -8 -6 -5 -6 6 -1 11 2 17 5 13 3 -3 4 -12 1 -19z"/>
<path d="M1136 384 c-9 -8 -16 -21 -17 -27 -5 -78 -4 -97 6 -110 12 -17 59
-17 76 0 5 5 11 37 13 72 3 58 1 63 -21 72 -33 12 -39 12 -57 -7z m40 -64 c-2
-35 -22 -42 -20 -7 3 44 4 48 13 42 5 -3 8 -19 7 -35z"/>
<path d="M1301 387 c-6 -8 -8 -17 -4 -20 3 -4 -1 -7 -10 -7 -9 0 -16 5 -14 12
3 16 -29 22 -35 6 -2 -7 -2 -40 1 -73 5 -50 10 -61 30 -71 19 -10 29 -10 47 2
19 13 22 22 19 67 -2 29 -3 62 -4 75 -1 25 -13 29 -30 9z m-3 -62 c0 -16 -6
-25 -17 -25 -13 0 -13 2 -2 9 9 6 10 11 2 15 -6 4 -9 12 -6 17 11 17 23 9 23
-16z m2 -45 c0 -5 -2 -10 -4 -10 -3 0 -8 5 -11 10 -3 6 -1 10 4 10 6 0 11 -4
11 -10z"/>
</g>
</svg>
